<svg xmlns="http://www.w3.org/2000/svg" viewBox="0 0 623.08 102.81"><defs><style>.cls-1{fill:#cacaca;}.cls-2{fill:#fff;}</style></defs><g id="Layer_2" data-name="Layer 2"><g id="Layer_1-2" data-name="Layer 1"><path class="cls-1" d="M317.59,21.07A2140.2,2140.2,0,0,1,0,14.41V0C43.94,4.1,90.37,7,139.1,8.25c63.41,1.61,122.93.17,178-3.2Z"/><path class="cls-2" d="M404.08,39.84A1451.08,1451.08,0,0,1,38.42,42Q18.89,39.59,0,36.76V23.6A1648.86,1648.86,0,0,0,187.8,36.43,1651.27,1651.27,0,0,0,403.59,24.67Z"/><path class="cls-1" d="M600.57,32.66A1622.69,1622.69,0,0,1,400,67.25c-122.47,13.31-215.17,9.3-237.91,8.18A1418.82,1418.82,0,0,1,0,58.1V44.92C41.86,51,86.26,55.78,133,58.54,318.4,69.53,478,45.77,600,16.19Z"/><path class="cls-1" d="M488.22,82.59S194.83,123.33,0,82.53V68.81C87.4,86.22,252.61,103.69,487.58,63Z"/><path class="cls-1" d="M76.12,102.81H17.46Q8.61,101,0,99V89.09Q25.13,94.49,51.81,99,64.05,101.06,76.12,102.81Z"/><path class="cls-1" d="M366.36,17.47l-15.45.87q-.53-7.73-1.06-15.46L365.4,1.26Z"/><path class="cls-1" d="M516.45,78.52,501,80.33q-.6-9.3-1.19-18.6l16.07-2.38Z"/><path class="cls-1" d="M623.08,26.08l-7.91,2.65-6.23,2.07-.53-16.45L623,10.28Z"/><path class="cls-2" d="M427.56,36.35c0-2.25,0-4.62-.15-7.1q-.18-3.45-.51-6.58l15-1.86.58,13.76Z"/></g></g></svg>