<svg xmlns="http://www.w3.org/2000/svg" viewBox="0 0 299.75 92.51"><defs><style>.cls-1{opacity:0.91;}.cls-2{fill:#cacaca;}.cls-3{fill:#fff;}</style></defs><g id="Layer_2" data-name="Layer 2"><g id="Layer_1-2" data-name="Layer 1"><g class="cls-1"><path class="cls-2" d="M77.49,14.41C50.88,15.87,25.25,16.54,1,16.63H0V5.49c.32,0,.64,0,1,0,26.51-.27,51.92-1.24,76.15-2.72Z"/><path class="cls-3" d="M140.42,28.07A1069.84,1069.84,0,0,1,1,37.28H0V25.65H1A1198.78,1198.78,0,0,0,140.06,17Z"/><path class="cls-3" d="M283.37,22.85A1180.59,1180.59,0,0,1,137.43,48,1186.69,1186.69,0,0,1,1,55H0V43.62H1A1156.43,1156.43,0,0,0,283,10.86Z"/><path class="cls-2" d="M201.63,59.17S106.43,72.39,1,72.34H0V63H1c56,0,122.92-4.73,200.21-18.1Z"/><path class="cls-3" d="M103.82,90.09A879.09,879.09,0,0,1,1,91.7l-1,0V82.51l1,0a876.43,876.43,0,0,0,102.51-3Z"/><path class="cls-2" d="M114.43,88.6l-.32-9.93a25.91,25.91,0,0,1,3.28-.46c.87-.06,1.63-.06,3.15-.19l1.39-.13c.16,3.4.31,6.79.46,10.19-.7.11-1.54.22-2.48.31-.3,0-1.24.11-2.49.17C116.59,88.59,115.58,88.62,114.43,88.6Z"/><path class="cls-2" d="M113,11.79l-11.24.64q-.39-5.62-.77-11.25L112.27,0Q112.62,5.9,113,11.79Z"/><path class="cls-2" d="M222.17,56.22,211,57.53q-.44-6.76-.86-13.53l11.69-1.74Z"/><path class="cls-2" d="M299.75,18.06,294,20l-4.53,1.5-.39-12,10.58-2.95Z"/><path class="cls-3" d="M157.5,25.53c0-1.64,0-3.36-.11-5.16s-.22-3.27-.38-4.79l11-1.35.42,10Z"/></g></g></g></svg>