<svg xmlns="http://www.w3.org/2000/svg" viewBox="0 0 161.37 112.64"><defs><style>.cls-1{fill:#fff;}</style></defs><g id="Layer_2" data-name="Layer 2"><g id="Layer_1-2" data-name="Layer 1"><path class="cls-1" d="M88.91,84.74H85.85l-3.13-4.67a4.26,4.26,0,0,1-.28-.59h0v5.26H80V74H82.4v5.08h0q.09-.21.3-.6l3-4.48h2.88l-3.74,5.12Z"/><path class="cls-1" d="M99.22,84.74H96.8V80.37H92.35v4.37H89.93V74h2.42v4.28H96.8V74h2.42Z"/><path class="cls-1" d="M111.12,84.74h-2.64l-.76-2.39H103.9l-.76,2.39h-2.62L104.43,74h2.87Zm-4-4.25L106,76.88a5.49,5.49,0,0,1-.18-1h-.06a3.85,3.85,0,0,1-.19.93l-1.16,3.64Z"/><path class="cls-1" d="M124.69,84.74H122.3V78.31c0-.69,0-1.46.09-2.29h-.06a12.58,12.58,0,0,1-.34,1.42l-2.51,7.3h-2l-2.56-7.23A14.77,14.77,0,0,1,114.6,76h-.06c.06,1,.09,2,.09,2.78v5.94h-2.17V74H116l2.19,6.37a9.25,9.25,0,0,1,.38,1.53h.05a14.63,14.63,0,0,1,.42-1.55l2.2-6.35h3.45Z"/><path class="cls-1" d="M126.63,84.33v-2.4a4.73,4.73,0,0,0,1.42.82,4.58,4.58,0,0,0,1.54.27,3.18,3.18,0,0,0,.8-.08,1.84,1.84,0,0,0,.57-.23,1.1,1.1,0,0,0,.34-.34.93.93,0,0,0-.07-1,1.81,1.81,0,0,0-.49-.46,5,5,0,0,0-.74-.41c-.28-.13-.59-.26-.92-.39a4.7,4.7,0,0,1-1.87-1.28,3.1,3.1,0,0,1-.28-3.27,2.88,2.88,0,0,1,.91-1,4.1,4.1,0,0,1,1.35-.57,6.46,6.46,0,0,1,1.61-.19,10.81,10.81,0,0,1,1.49.1,5.91,5.91,0,0,1,1.19.31v2.24a4.61,4.61,0,0,0-.58-.33,5.16,5.16,0,0,0-.66-.23,5.32,5.32,0,0,0-.67-.14,4.7,4.7,0,0,0-.63,0,3.38,3.38,0,0,0-.75.08,2.51,2.51,0,0,0-.57.22,1.31,1.31,0,0,0-.36.34.87.87,0,0,0-.13.45.81.81,0,0,0,.15.48,1.71,1.71,0,0,0,.4.41,5.19,5.19,0,0,0,.64.37c.25.12.53.25.84.38a9.65,9.65,0,0,1,1.16.57,4.07,4.07,0,0,1,.88.69,2.65,2.65,0,0,1,.56.87,3.09,3.09,0,0,1,.2,1.14,3,3,0,0,1-.35,1.51,2.73,2.73,0,0,1-.92,1,4,4,0,0,1-1.36.54,7.84,7.84,0,0,1-1.63.16,9.24,9.24,0,0,1-1.69-.15A5.46,5.46,0,0,1,126.63,84.33Z"/><path class="cls-1" d="M145.16,84.74h-2.63l-.77-2.39H138l-.76,2.39h-2.62L138.48,74h2.86Zm-3.95-4.25-1.15-3.61a4.1,4.1,0,0,1-.18-1h-.06a4.39,4.39,0,0,1-.19.93l-1.17,3.64Z"/><path class="cls-1" d="M155.79,84.74h-2.42V80.37h-4.45v4.37H146.5V74h2.42v4.28h4.45V74h2.42Z"/><path class="cls-1" d="M92.13,41v2.7a540.06,540.06,0,0,0-63.2,1.08Q14.32,45.86.78,47.64c.14-1,.41-2.7.38-2.52Q14.3,43.56,28.3,42.49A627.89,627.89,0,0,1,92.13,41Z"/><path class="cls-1" d="M39,46.51l0,2.64q-11.23.56-22.8,1.32Q8.19,51,.34,51.64c0-.4.07-.8.11-1.2s.11-1.07.18-1.6q11.24-.51,22.78-1.24Q31.3,47.09,39,46.51Z"/><path class="cls-1" d="M79.92,35.05v3.12c-10.79-.31-22.44-.21-34.83.51A402.35,402.35,0,0,0,1.42,43.59c.17-.93.36-1.86.56-2.78A402,402,0,0,1,79.92,35.05Z"/><path class="cls-1" d="M96.71,30.84v3A324.23,324.23,0,0,0,2.3,39.41h0a.93.93,0,0,1,0-.13l0-.18c.15-.59.29-1.18.44-1.76a1.6,1.6,0,0,0,0-.21h0c7-1.68,14.47-3.17,22.31-4.38A285.42,285.42,0,0,1,96.71,30.84Z"/><path class="cls-1" d="M135.19,31V34.2A308.44,308.44,0,0,0,3.36,35.32h0l.16-.55h0c.13-.42.26-.83.38-1.25l.21-.64h0a278.39,278.39,0,0,1,45-7.42,305.44,305.44,0,0,1,46.59.08A319.24,319.24,0,0,1,135.19,31Z"/><path class="cls-1" d="M112.9,22V25.8c-64.54-9-101.75,3.26-108.35,5.72.31-.92.63-1.82,1-2.72h0C41.59,14.48,112.9,22,112.9,22Z"/><path class="cls-1" d="M86.33,14.57v2.84a233.67,233.67,0,0,0-58.9,4.15c-7.54,1.52-14.6,3.33-21.16,5.3l.05-.11c.25-.6.5-1.21.76-1.82a1.54,1.54,0,0,1,.08-.19A236.87,236.87,0,0,1,86.33,14.57Z"/><path class="cls-1" d="M27.09,52.2v3.38l-27,.74c0-1,.08-1.94.15-2.9Z"/><path class="cls-1" d="M31.67,60.16,0,60.69c0-.45,0-.91,0-1.37s0-.75,0-1.12l31.59-.52Z"/><path class="cls-1" d="M51.42,63.21v3.1L34,65.89l-1.3,0L.19,65.08c-.06-.83-.1-1.67-.13-2.5Z"/><path class="cls-1" d="M58.27,68.71v3.6s-46-1-57.72-3.2c-.09-.76-.17-1.52-.23-2.29C6.31,67.3,29.72,69,58.27,68.71Z"/><path class="cls-1" d="M42.36,74.2v2.17s-30.52-.31-41.22-2.91C1,72.5.85,71.54.72,70.57A357,357,0,0,0,42.36,74.2Z"/><path class="cls-1" d="M30.14,78.29v3.24A140.79,140.79,0,0,1,1.88,77.38c-.16-.75-.31-1.51-.44-2.27C9,76.84,30.14,78.29,30.14,78.29Z"/><path class="cls-1" d="M25,82.76V85.5A169.68,169.68,0,0,1,2.82,81.34c-.19-.7-.37-1.42-.53-2.13C6.24,81,25,82.76,25,82.76Z"/><path class="cls-1" d="M21.9,86.9v2.57A132.62,132.62,0,0,1,4,85.51c-.24-.77-.48-1.55-.7-2.34Z"/><path class="cls-1" d="M19.76,91.31v2.21S10,91.26,5.44,89.64c-.26-.71-.52-1.41-.76-2.13C6.69,88.05,11,89.15,19.76,91.31Z"/><path class="cls-1" d="M18.69,94.77V97.5A89,89,0,0,1,7,93.52c-.31-.72-.61-1.44-.9-2.17Z"/><path class="cls-1" d="M18.69,99.06v2.18c-2.91-.53-7.42-2.53-9.82-3.65-.37-.76-.74-1.52-1.08-2.29A104.21,104.21,0,0,0,18.69,99.06Z"/><path class="cls-1" d="M17.93,102.6V105s-4.54-1.84-6.75-3h0q-.64-1.15-1.26-2.34A33.31,33.31,0,0,0,17.93,102.6Z"/><path class="cls-1" d="M18.42,106.38l0,1.73L13.59,106c-.41-.64-.82-1.29-1.21-2a21.77,21.77,0,0,0,2.77,1.35A20.8,20.8,0,0,0,18.42,106.38Z"/><path class="cls-1" d="M19.76,112.64l-3.06-2c-.73-1-1.44-1.93-2.13-2.92a14.48,14.48,0,0,0,1.73,1.1A14.29,14.29,0,0,0,19.35,110Z"/><path class="cls-1" d="M50.6,13.13q-4.17.63-8.48,1.42a254.22,254.22,0,0,0-34.38,8.9q.54-1.2,1.11-2.37a109.94,109.94,0,0,1,17-6.16c3.85-1,7.24-1.72,11.32-2.53,5.34-1.07,9.83-1.82,13.08-2.31Z"/><path class="cls-1" d="M16.4,15v2.21A37.9,37.9,0,0,0,9.4,20c.48-.93,1-1.85,1.48-2.77h0Z"/><path class="cls-1" d="M20.07,11.3v1.76l-8.41,2.77c.44-.75.89-1.51,1.36-2.25Z"/><path class="cls-1" d="M17.93,9.37v1.37c-.6.14-1.23.3-1.88.5s-1.36.44-2,.67L14.7,11l.64-.93h0Z"/><path class="cls-1" d="M20.05,6.1l-.48,1.65a12,12,0,0,0-1.7.47A12.63,12.63,0,0,0,16,9.08c.23-.32.45-.64.69-1s.46-.63.7-.94Z"/><path class="cls-1" d="M21.9,3.6l-.07,1.18c-.48.12-1,.24-1.48.38s-1.22.35-1.8.53l.59-.75.59-.73Z"/><path class="cls-1" d="M20.68,3l4.95-1.2L26.24,0l-4,1.31Z"/><path class="cls-1" d="M32,2.39V4q.41-.09.9-.15a9,9,0,0,1,1.23-.05l0-1.55a6.12,6.12,0,0,0-1.35,0A5.61,5.61,0,0,0,32,2.39Z"/><path class="cls-1" d="M89.2,14.87v2.66a6.18,6.18,0,0,0,.88.1c.24,0,.44,0,.85,0l.38,0,0-2.73-.67-.06c-.08,0-.33,0-.67,0Z"/><path class="cls-1" d="M89.39,35.38c-.45,0-.92,0-1.42,0s-1-.06-1.52-.1v3.21h2.82Z"/><path class="cls-1" d="M61.94,68.82l-2.83,0,0,3.6H62Z"/><path class="cls-1" d="M47.11,74.3l-2.82,0,0,2.22h2.82Z"/><path class="cls-1" d="M55.45,63.37l-1.48,0-1.3,0,0,3,2.8,0Z"/><path class="cls-1" d="M37.05,57.52l-2.81,0v2.6l2.81,0Z"/><path class="cls-1" d="M32.85,52.33l-1.26,0-1.75,0,.09,3.17,2.92,0Z"/><path class="cls-1" d="M45.4,46.29l-1.57.08-1.43.07L42.47,49l2.9-.14Z"/><path class="cls-1" d="M97.48,41h-1.2c-.55,0-1.08,0-1.58-.07v2.75h2.81Z"/><path class="cls-1" d="M118.18,22.56l-2.76-.22L115.16,26l2.69.3Z"/><path class="cls-1" d="M139.65,32.4a10.13,10.13,0,0,0-2.81-1.1v3.21l2.87.7Z"/><path class="cls-1" d="M57,10.41l0-.9h0l-3.07.33.33,2.73,2.91-.33Z"/><path class="cls-1" d="M35.62,78.84c-.46-.08-.94-.14-1.45-.19s-1-.08-1.46-.1v3h2.81Z"/><path class="cls-1" d="M32.69,83.59l-1.39-.08-1.42-.05v2.46l2.83.09Z"/><path class="cls-1" d="M29.68,88.2l-1.48-.1L26.91,88l-.05,2.18,2.66.24Z"/><path class="cls-1" d="M28.74,92.93l-2.45-.33-.12,2.22,2.64.11Z"/><path class="cls-1" d="M24.52,96.21l-1.15-.31c-.51-.14-1-.29-1.46-.45L22,98.14l2.54.44Z"/><path class="cls-1" d="M23.84,100.54c-.41-.08-.83-.18-1.28-.31s-.79-.23-1.15-.35V102l2.4.55Z"/><path class="cls-1" d="M29.62,108l-1.51,0H27l-.1,1.93h2.81Z"/><path class="cls-1" d="M101.33,31.37c0,.45,0,.91,0,1.39s0,.84,0,1.25l2.82.2.05-2.59Z"/><path class="cls-1" d="M45.32,59.91,45,58.34H42.4L42,59.91H39.23l2.93-8.51h3.18l2.76,8.51ZM43.7,53.25h-.06a2.5,2.5,0,0,1-.08.47c-.05.22-.28,1.15-.72,2.8h1.63l-.59-2.31A7.61,7.61,0,0,1,43.7,53.25Z"/><path class="cls-1" d="M49.1,59.91V51.4h2.57v6.5H54.6v2Z"/><path class="cls-1" d="M65.76,84.75l-.45-1.88H62.26l-.48,1.88H58.46L62,74.54h3.82L69.1,84.75Zm-1.94-8h-.07a4.3,4.3,0,0,1-.1.57c0,.26-.34,1.38-.86,3.36h1.95L64,77.91A9.1,9.1,0,0,1,63.82,76.76Z"/><path class="cls-1" d="M70.29,84.75V74.54h3.08v7.81h3.52v2.4Z"/><path class="cls-1" d="M78,57.11A10.66,10.66,0,0,1,74.89,65l5.45,5.26H72.55l-2.61-2.65a11.77,11.77,0,0,1-2.4.24,10.77,10.77,0,0,1-5.28-1.31,9.28,9.28,0,0,1-3.7-3.7,10.79,10.79,0,0,1-1.33-5.38,11.89,11.89,0,0,1,1.34-5.66,9.5,9.5,0,0,1,3.75-3.89,11,11,0,0,1,5.49-1.37,10.54,10.54,0,0,1,5.29,1.32,8.89,8.89,0,0,1,3.61,3.75A11.7,11.7,0,0,1,78,57.11Zm-6.58.17a7.1,7.1,0,0,0-1-4,3.06,3.06,0,0,0-2.67-1.46,3.39,3.39,0,0,0-2.89,1.41,6.62,6.62,0,0,0-1,4,6.52,6.52,0,0,0,1,3.92,3.26,3.26,0,0,0,2.79,1.41,3.22,3.22,0,0,0,2.72-1.43A6.34,6.34,0,0,0,71.4,57.28Z"/><path class="cls-1" d="M93.82,67.47l-.91-3.79H86.76l-1,3.79H79.07l7.1-20.6h7.7l6.69,20.6ZM89.91,51.35h-.14a9.34,9.34,0,0,1-.21,1.13q-.16.8-1.73,6.79h3.93l-1.43-5.61A16.7,16.7,0,0,1,89.91,51.35Z"/><path class="cls-1" d="M113.66,67.47,112.12,63A5.4,5.4,0,0,0,111,61a2.12,2.12,0,0,0-1.55-.75h-.24v7.24H103V46.87h8.25q4.32,0,6.39,1.41a4.82,4.82,0,0,1,2.06,4.25,5.38,5.38,0,0,1-1.2,3.56,6.81,6.81,0,0,1-3.57,2.08v.06a5,5,0,0,1,2.17,1.31,8,8,0,0,1,1.56,2.69l2,5.24Zm-.59-14.07a2.14,2.14,0,0,0-.63-1.63,2.75,2.75,0,0,0-2-.61h-1.28v4.71h1.12a2.85,2.85,0,0,0,2-.7A2.3,2.3,0,0,0,113.07,53.4Z"/><path class="cls-1" d="M136,67.47l-.9-3.79h-6.15l-1,3.79h-6.71l7.1-20.6H136l6.68,20.6Zm-3.91-16.12h-.14a11.09,11.09,0,0,1-.2,1.13q-.18.8-1.74,6.79h3.94l-1.44-5.61A18.33,18.33,0,0,1,132.05,51.35Z"/><path class="cls-1" d="M155.53,51.72V67.47H149.3V51.72h-5.77V46.87h17.84v4.85Z"/></g></g></svg>