<svg xmlns="http://www.w3.org/2000/svg" viewBox="0 0 20.69 22.15"><defs><style>.cls-1{fill:#fff;fill-rule:evenodd;}</style></defs><g id="Layer_2" data-name="Layer 2"><g id="Layer_1-2" data-name="Layer 1"><path class="cls-1" d="M0,6.73A7.06,7.06,0,0,1,2.38,1.47C3,.92,3.81-.1,4.73,0S6.38,1.19,6.84,1.93C7.67,3.22,9,5.09,7.78,6.52c-.59.68-1.51,1.05-2,1.79a2.45,2.45,0,0,0,.14,2.49,15.23,15.23,0,0,0,3.78,4.55,3.39,3.39,0,0,0,2.45,1c.94-.14,1.65-1.18,2.34-1.74,1.76-1.42,3.68.51,5,1.67a3,3,0,0,1,1.26,2.13c0,.88-1.19,1.62-1.81,2.14a7.08,7.08,0,0,1-6,1.41,13.61,13.61,0,0,1-6-3.42A28.66,28.66,0,0,1,2.22,13.1,12.86,12.86,0,0,1,.7,10.15,14.53,14.53,0,0,1,0,6.73C0,5.6.07,7.35,0,6.73Z"/></g></g></svg>